<?xml version="1.0" encoding="UTF-8"?>
<svg xmlns="http://www.w3.org/2000/svg" width="346" height="112" viewBox="92 185 346 112">
<path d="M0 0 C1.65 0 3.3 0 5 0 C5.02901401 4.58332006 5.04680348 9.16661651 5.0625 13.75 C5.07087891 15.05195313 5.07925781 16.35390625 5.08789062 17.6953125 C5.09111328 18.94570312 5.09433594 20.19609375 5.09765625 21.484375 C5.10289307 22.63647461 5.10812988 23.78857422 5.11352539 24.97558594 C5.01804485 27.51926964 4.74917261 29.58398313 4 32 C5.32 32.33 6.64 32.66 8 33 C8.33 31.68 8.66 30.36 9 29 C8.34 28.67 7.68 28.34 7 28 C7 18.76 7 9.52 7 0 C8.98 0 10.96 0 13 0 C13.01458252 0.70608398 13.02916504 1.41216797 13.04418945 2.13964844 C13.11873167 5.34364674 13.21537205 8.54661016 13.3125 11.75 C13.34633789 13.41675781 13.34633789 13.41675781 13.38085938 15.1171875 C13.41630859 16.18710938 13.45175781 17.25703125 13.48828125 18.359375 C13.51446533 19.34389648 13.54064941 20.32841797 13.56762695 21.34277344 C14.06029611 24.37056063 15.04658744 25.68835134 17 28 C17.6875 30.25 17.6875 30.25 18 32 C19.65 32 21.3 32 23 32 C22.88693303 30.04105639 22.88693303 30.04105639 22 28 C19.57616923 26.83046584 19.57616923 26.83046584 17 26 C15 24 15 24 14.77294922 21.66162109 C14.78342285 20.70852051 14.79389648 19.75541992 14.8046875 18.7734375 C14.81113281 17.7421875 14.81757813 16.7109375 14.82421875 15.6484375 C14.84097656 14.56820312 14.85773438 13.48796875 14.875 12.375 C14.88402344 11.28703125 14.89304688 10.1990625 14.90234375 9.078125 C14.92596591 6.38519848 14.95890444 3.69270745 15 1 C23.15099163 3.45332237 27.63252457 7.8122666 32.0546875 14.97265625 C35.2554003 21.83699487 35.0847339 30.11677015 32.6953125 37.16796875 C31.2353569 41.1558229 29.62421502 45.07668837 28 49 C26.48691559 53.53925323 26.99784247 58.18976449 27.12695312 62.92773438 C27.15664538 64.95204749 27.08505895 66.97725677 27 69 C25 71 25 71 22.6171875 71.1953125 C21.71226562 71.17210937 20.80734375 71.14890625 19.875 71.125 C18.96492188 71.10695313 18.05484375 71.08890625 17.1171875 71.0703125 C16.41851562 71.04710937 15.71984375 71.02390625 15 71 C14.91293108 67.72933434 14.85958759 64.45896635 14.8125 61.1875 C14.78736328 60.25873047 14.76222656 59.32996094 14.73632812 58.37304688 C14.72666016 57.48037109 14.71699219 56.58769531 14.70703125 55.66796875 C14.6913208 54.84578857 14.67561035 54.0236084 14.65942383 53.17651367 C15.08262991 50.4719386 15.86498197 49.6597972 18 48 C20.6875 46.8125 20.6875 46.8125 23 46 C23 45.01 23 44.02 23 43 C20.62102997 42.95489639 20.62102997 42.95489639 18 44 C13.82785337 49.70602407 13.35999882 54.4925745 13.25 61.4375 C13.20552734 62.82098633 13.20552734 62.82098633 13.16015625 64.23242188 C13.09004015 66.48782323 13.0426885 68.74391285 13 71 C8.71 71 4.42 71 0 71 C-0.02578125 69.60265625 -0.0515625 68.2053125 -0.078125 66.765625 C-0.13440784 64.92705217 -0.19175514 63.08851172 -0.25 61.25 C-0.26417969 60.32960938 -0.27835938 59.40921875 -0.29296875 58.4609375 C-0.39210533 53.05971812 -0.39210533 53.05971812 -3 48.5 C-3.66 48.005 -4.32 47.51 -5 47 C-5.75 44.75 -5.75 44.75 -6 43 C-7.32 43 -8.64 43 -10 43 C-10 44.32 -10 45.64 -10 47 C-8.576875 47.433125 -8.576875 47.433125 -7.125 47.875 C-4 49 -4 49 -2 51 C-1.77294922 52.97119141 -1.77294922 52.97119141 -1.8046875 55.3515625 C-1.81113281 56.20234375 -1.81757813 57.053125 -1.82421875 57.9296875 C-1.84097656 58.81914062 -1.85773438 59.70859375 -1.875 60.625 C-1.88402344 61.5221875 -1.89304688 62.419375 -1.90234375 63.34375 C-1.9259503 65.56276586 -1.9588769 67.78125077 -2 70 C-3.9375 69.6875 -3.9375 69.6875 -6 69 C-6.33 68.01 -6.66 67.02 -7 66 C-8.39025391 65.92652344 -8.39025391 65.92652344 -9.80859375 65.8515625 C-11.00613281 65.77679688 -12.20367187 65.70203125 -13.4375 65.625 C-14.63246094 65.55539062 -15.82742187 65.48578125 -17.05859375 65.4140625 C-18.02925781 65.27742188 -18.99992187 65.14078125 -20 65 C-21.44207941 62.11584117 -21.09394887 59.58278472 -21.0625 56.375 C-21.05347656 55.18648438 -21.04445313 53.99796875 -21.03515625 52.7734375 C-21.02355469 51.85820312 -21.01195313 50.94296875 -21 50 C-21.804375 49.855625 -22.60875 49.71125 -23.4375 49.5625 C-26 49 -26 49 -27 48 C-26.72129319 43.63359338 -25.77231233 40.3082587 -24 36.3125 C-22.33124007 32.39687402 -21.71426341 29.12277206 -21.5 24.875 C-20.92287876 15.47273313 -17.36605037 10.82995987 -10.4140625 4.6640625 C-7.7044718 2.79628639 -5.15183064 1.89922546 -2 1 C-1.913015 4.77068832 -1.85961421 8.54111932 -1.8125 12.3125 C-1.78736328 13.38435547 -1.76222656 14.45621094 -1.73632812 15.56054688 C-1.72666016 16.58857422 -1.71699219 17.61660156 -1.70703125 18.67578125 C-1.6913208 19.62364502 -1.67561035 20.57150879 -1.65942383 21.5480957 C-2 24 -2 24 -3.3503418 25.78979492 C-5.48725819 27.35745728 -7.40128134 27.6488218 -10 28 C-10 29.32 -10 30.64 -10 32 C-8.35 32.33 -6.7 32.66 -5 33 C-5.12375 31.88625 -5.12375 31.88625 -5.25 30.75 C-5 28 -5 28 -3.02246094 26.18066406 C-0.47799435 23.43716146 -0.46917381 22.05116897 -0.390625 18.359375 C-0.34228516 16.75449219 -0.34228516 16.75449219 -0.29296875 15.1171875 C-0.27878906 14.00601563 -0.26460937 12.89484375 -0.25 11.75 C-0.22035156 10.62335938 -0.19070312 9.49671875 -0.16015625 8.3359375 C-0.08951088 5.55721979 -0.03678723 2.77933852 0 0 Z " fill="#0089B8" transform="translate(138,205)"/>
<path d="M0 0 C5.67337456 3.29055724 8.57316047 8.33382094 11.4375 14.0625 C12.05847378 22.86811174 12.59057135 31.45475615 7.4375 39.0625 C5.1875 41.625 5.1875 41.625 3.4375 43.0625 C4.81376099 47.07659454 6.78054697 49.78559126 9.4375 53.0625 C9.4375 53.7225 9.4375 54.3825 9.4375 55.0625 C6.01671846 55.48096454 2.8392705 55.69402994 -0.5625 55.0625 C-1.84765625 53.50390625 -1.84765625 53.50390625 -2.8125 51.5625 C-3.81266297 49.52960905 -3.81266297 49.52960905 -5.5625 48.0625 C-9.13260359 47.69256417 -12.53433309 47.88248433 -16.1171875 48.05078125 C-21.97937575 48.07072067 -25.32763145 46.15074695 -29.52734375 42.2265625 C-36.29338056 35.00392197 -37.29870953 27.66271976 -36.9921875 18.0546875 C-36.4707497 11.18531125 -33.43855738 6.71897014 -28.46484375 2.125 C-20.17910092 -3.85069433 -9.25186627 -3.99100114 0 0 Z " fill="#1c1917" transform="translate(217.5625,220.9375)"/>
<path d="M0 0 C24 0 24 0 32 4 C34.51698153 6.9102599 34.9511702 8.61633731 35.4375 12.4375 C34.91894272 16.66003788 33.66649168 18.7240245 31 22 C30.01 22.66 29.02 23.32 28 24 C28.49371094 24.32871094 28.98742187 24.65742188 29.49609375 24.99609375 C32.3367888 27.10518122 34.56499522 28.79784395 35.79296875 32.19140625 C36.52006662 37.24687494 35.98943967 40.71513647 33 45 C23.14857796 54.11256539 16.04710159 50 0 50 C0 33.5 0 17 0 0 Z " fill="#1c1917" transform="translate(276,219)"/>
<path d="M0 0 C4.53333062 1.67096319 7.84391691 4.27747481 10.5 8.3125 C12 12 12 12 12 20 C3.42 20 -5.16 20 -14 20 C-11.81940167 26.84825895 -11.81940167 26.84825895 -8 29 C-5.04230823 29.50010524 -5.04230823 29.50010524 -2 29 C-1.401875 28.34 -0.80375 27.68 -0.1875 27 C2.43994728 24.59776249 3.29379552 24.72843242 6.75 24.75 C8.16767057 24.81402383 9.58506449 24.89115881 11 25 C8.81549957 30.21852881 6.47544039 32.73665805 2 36 C-3.54968566 37.84989522 -9.03259839 37.96514041 -14.3125 35.375 C-18.76874557 31.43692252 -22.69427885 27.74508407 -23.203125 21.51171875 C-23.36647913 11.66963234 -23.36647913 11.66963234 -20 7 C-13.59424837 0.7128734 -9.08424297 -1.06657104 0 0 Z " fill="#1c1917" transform="translate(406,233)"/>
<path d="M0 0 C4.18170688 2.01875505 6.43435654 4.89610157 8.21484375 9.03515625 C9.95846761 15.21521952 9.77209652 21.18485015 7 27 C4.875 30.375 4.875 30.375 2.875 31.375 C2.54628906 30.73691406 2.21757812 30.09882813 1.87890625 29.44140625 C-0.84673471 24.4198966 -0.84673471 24.4198966 -5.52734375 21.5546875 C-7.76138174 21.33587177 -9.8850423 21.25055791 -12.125 21.375 C-11.63128906 22.13425781 -11.13757813 22.89351562 -10.62890625 23.67578125 C-9.98824219 24.66964844 -9.34757813 25.66351563 -8.6875 26.6875 C-8.04941406 27.67363281 -7.41132813 28.65976563 -6.75390625 29.67578125 C-5.125 32.375 -5.125 32.375 -4.125 35.375 C-10.19466268 35.79359743 -13.32732338 35.51844799 -18.125 31.375 C-23.07621125 24.8179905 -23.90545519 19.42138308 -23.125 11.375 C-21.839542 6.93833352 -19.85545377 4.08763782 -16.5625 0.875 C-11.13744637 -1.49229613 -5.70281267 -1.67729784 0 0 Z " fill="#11092B" transform="translate(212.125,226.625)"/>
<path d="M0 0 C2.97 0 5.94 0 9 0 C9.01458252 0.70608398 9.02916504 1.41216797 9.04418945 2.13964844 C9.11873167 5.34364674 9.21537205 8.54661016 9.3125 11.75 C9.33505859 12.86117187 9.35761719 13.97234375 9.38085938 15.1171875 C9.41630859 16.18710938 9.45175781 17.25703125 9.48828125 18.359375 C9.51446533 19.34389648 9.54064941 20.32841797 9.56762695 21.34277344 C10.06394529 24.39298731 10.84051143 25.81018602 13 28 C16.42923043 28.51073645 18.28442457 28.4061374 21.3125 26.6875 C24.1975179 23.8024821 24.15931588 20.77690758 24.31640625 16.89453125 C24.35830078 15.91162109 24.40019531 14.92871094 24.44335938 13.91601562 C24.48267578 12.89185547 24.52199219 11.86769531 24.5625 10.8125 C24.60568359 9.77673828 24.64886719 8.74097656 24.69335938 7.67382812 C24.79944366 5.1160181 24.90150146 2.55811155 25 0 C27.97 0 30.94 0 34 0 C34 11.55 34 23.1 34 35 C31.36 35 28.72 35 26 35 C26 33.35 26 31.7 26 30 C25.34 30 24.68 30 24 30 C23.7525 30.61875 23.505 31.2375 23.25 31.875 C21.74115593 34.44003491 20.72426105 34.89478377 18 36 C13.40475247 36.71852961 9.8554304 36.39603259 5.625 34.4375 C1.68808923 30.78179714 0.19293502 27.36742385 -0.23730469 22.08813477 C-0.2947966 18.74124801 -0.26169768 15.4090057 -0.1875 12.0625 C-0.17396484 10.90169922 -0.16042969 9.74089844 -0.14648438 8.54492188 C-0.1113141 5.69612948 -0.06209287 2.84831156 0 0 Z " fill="#1c1917" transform="translate(235,234)"/>
<path d="M0 0 C2.64 0 5.28 0 8 0 C8 3.3 8 6.6 8 10 C10.97 10 13.94 10 17 10 C17 12.31 17 14.62 17 17 C14.03 17 11.06 17 8 17 C8.33 23.6 8.66 30.2 9 37 C11.64 37.33 14.28 37.66 17 38 C17 40.31 17 42.62 17 45 C4.95215453 45.56968796 4.95215453 45.56968796 1 42 C-0.90253905 38.91539024 -1.23917855 36.61264072 -1.1953125 33.015625 C-1.18886719 32.08105469 -1.18242187 31.14648438 -1.17578125 30.18359375 C-1.15902344 29.21550781 -1.14226562 28.24742187 -1.125 27.25 C-1.11597656 26.26644531 -1.10695313 25.28289062 -1.09765625 24.26953125 C-1.07412785 21.84610593 -1.04125368 19.42317778 -1 17 C-2.98 17 -4.96 17 -7 17 C-7 14.69 -7 12.38 -7 10 C-5.02 10 -3.04 10 -1 10 C-0.67 6.7 -0.34 3.4 0 0 Z " fill="#1c1917" transform="translate(364,224)"/>
<path d="M0 0 C0 2.97 0 5.94 0 9 C-2.27864583 9.42317708 -4.55729167 9.84635417 -6.8359375 10.26953125 C-9.35820641 10.87544942 -9.35820641 10.87544942 -11 14 C-11.3663859 16.41713479 -11.3663859 16.41713479 -11.4140625 19.10546875 C-11.47207031 20.57983398 -11.47207031 20.57983398 -11.53125 22.08398438 C-11.5621875 23.10814453 -11.593125 24.13230469 -11.625 25.1875 C-11.68300781 26.74114258 -11.68300781 26.74114258 -11.7421875 28.32617188 C-11.83648296 30.88393622 -11.92208202 33.44169287 -12 36 C-14.97 36 -17.94 36 -21 36 C-21 24.45 -21 12.9 -21 1 C-18.36 1 -15.72 1 -13 1 C-12.67 2.65 -12.34 4.3 -12 6 C-11.21625 5.195625 -10.4325 4.39125 -9.625 3.5625 C-6.14787726 0.1681659 -4.72585948 -0.12436472 0 0 Z " fill="#1c1917" transform="translate(338,233)"/>
<path d="M0 0 C2.97 0 5.94 0 9 0 C9 11.55 9 23.1 9 35 C6.03 35 3.06 35 0 35 C0 23.45 0 11.9 0 0 Z " fill="#1c1917" transform="translate(343,234)"/>
<path d="M0 0 C13.3107415 -0.4033558 13.3107415 -0.4033558 18 3 C19 4 19 4 19.25 7.3125 C18.99178534 11.12116621 18.69676259 12.40311751 16 15 C10.83608171 16.7213061 5.40708764 16.05353552 0 16 C0 10.72 0 5.44 0 0 Z " fill="#120B2D" transform="translate(284,246)"/>
<path d="M0 0 C13.34184869 -0.49414254 13.34184869 -0.49414254 16.4296875 1.82421875 C18.52529706 4.72783697 18.4476678 6.49326886 18 10 C16 13 16 13 13 14 C8.66328697 14.13501597 4.33988266 14.04296914 0 14 C0 9.38 0 4.76 0 0 Z " fill="#140D2E" transform="translate(284,226)"/>
<path d="M0 0 C2.875 1.75 2.875 1.75 5 4 C5 5.32 5 6.64 5 8 C-0.61 8 -6.22 8 -12 8 C-10.39909685 1.59638739 -6.60595008 -1.10099168 0 0 Z " fill="#120A2C" transform="translate(404,240)"/>
<path d="M0 0 C0.33 0 0.66 0 1 0 C1.11618764 3.91641711 1.18724654 7.83239101 1.25 11.75 C1.28351563 12.86117187 1.31703125 13.97234375 1.3515625 15.1171875 C1.36445313 16.18710938 1.37734375 17.25703125 1.390625 18.359375 C1.41157227 19.34389648 1.43251953 20.32841797 1.45410156 21.34277344 C0.87703294 24.71955563 -0.50109639 25.7520727 -3 28 C-3.79681318 30.64184541 -3.79681318 30.64184541 -4 33 C-5.65 33 -7.3 33 -9 33 C-9.33 31.35 -9.66 29.7 -10 28 C-8.865625 27.525625 -7.73125 27.05125 -6.5625 26.5625 C-3.24259834 25.36377917 -3.24259834 25.36377917 -2 24 C-1.85469013 22.30571693 -1.77283477 20.60589258 -1.71875 18.90625 C-1.68136719 17.87628906 -1.64398438 16.84632813 -1.60546875 15.78515625 C-1.57066406 14.70105469 -1.53585938 13.61695313 -1.5 12.5 C-1.43143859 10.36443906 -1.35874988 8.22900524 -1.28125 6.09375 C-1.25095703 5.14177734 -1.22066406 4.18980469 -1.18945312 3.20898438 C-1 1 -1 1 0 0 Z " fill="#08254B" transform="translate(137,205)"/>
<path d="M0 0 C3.5 0.25 3.5 0.25 5.5 2.25 C5.75 4.75 5.75 4.75 5.5 7.25 C3.5 9.25 3.5 9.25 0 9.5 C-3.5 9.25 -3.5 9.25 -5.5 7.25 C-5.75 4.75 -5.75 4.75 -5.5 2.25 C-3.5 0.25 -3.5 0.25 0 0 Z " fill="#1c1917" transform="translate(347.5,218.75)"/>
<path d="M0 0 C1.65 0.33 3.3 0.66 5 1 C4.875 2.8125 4.875 2.8125 4 5 C1 6.6875 1 6.6875 -2 8 C-3.54950268 9.54950268 -3.21655193 11.09990594 -3.31640625 13.25390625 C-3.35830078 14.10791016 -3.40019531 14.96191406 -3.44335938 15.84179688 C-3.48267578 16.73962891 -3.52199219 17.63746094 -3.5625 18.5625 C-3.60568359 19.46419922 -3.64886719 20.36589844 -3.69335938 21.29492188 C-3.79978142 23.52978485 -3.90179988 25.76476308 -4 28 C-4.66 28 -5.32 28 -6 28 C-7.08843537 8.18644495 -7.08843537 8.18644495 -1.3125 1.30078125 C-0.879375 0.87152344 -0.44625 0.44226563 0 0 Z " fill="#072D53" transform="translate(157,247)"/>
<path d="M0 0 C0.33 0 0.66 0 1 0 C1.01981934 0.68626465 1.03963867 1.3725293 1.06005859 2.07958984 C1.15510945 5.17845779 1.26486847 8.27663294 1.375 11.375 C1.4059375 12.45523438 1.436875 13.53546875 1.46875 14.6484375 C1.50742188 15.6796875 1.54609375 16.7109375 1.5859375 17.7734375 C1.6173584 18.72653809 1.6487793 19.67963867 1.68115234 20.66162109 C1.78555796 23.18895176 1.78555796 23.18895176 4 25 C5.2684375 25.433125 5.2684375 25.433125 6.5625 25.875 C9 27 9 27 9.875 29.0625 C9.936875 30.0215625 9.936875 30.0215625 10 31 C9 32 9 32 6.4375 32.0625 C5.633125 32.041875 4.82875 32.02125 4 32 C3 30 2 28 1 26 C0.63600098 25.3802832 0.27200195 24.76056641 -0.10302734 24.12207031 C-1.21491276 21.49155642 -1.14189138 19.64053173 -0.9765625 16.796875 C-0.925 15.8171875 -0.8734375 14.8375 -0.8203125 13.828125 C-0.75585938 12.81234375 -0.69140625 11.7965625 -0.625 10.75 C-0.56828125 9.71875 -0.5115625 8.6875 -0.453125 7.625 C-0.311881 5.08260795 -0.16049254 2.54123762 0 0 Z " fill="#072B51" transform="translate(152,206)"/>
<path d="M0 0 C1.32 0 2.64 0 4 0 C4 9.57 4 19.14 4 29 C5.32 29.33 6.64 29.66 8 30 C7.67 31.32 7.34 32.64 7 34 C5.125 34.625 5.125 34.625 3 35 C2.34 34.34 1.68 33.68 1 33 C1.27832194 31.65410781 1.62633908 30.32259835 2 29 C2.1472796 26.8305592 2.2472547 24.65770947 2.31640625 22.484375 C2.35830078 21.23398438 2.40019531 19.98359375 2.44335938 18.6953125 C2.50233398 16.74238281 2.50233398 16.74238281 2.5625 14.75 C2.60568359 13.43257812 2.64886719 12.11515625 2.69335938 10.7578125 C2.79941917 7.50531212 2.90148024 4.25273608 3 1 C2.01 0.67 1.02 0.34 0 0 Z " fill="#05446C" transform="translate(140,204)"/>
<path d="M0 0 C2.125 0.375 2.125 0.375 4 1 C4.33 2.32 4.66 3.64 5 5 C4.01 5.66 3.02 6.32 2 7 C1.49095616 9.4157113 1.49095616 9.4157113 1.48828125 12.2265625 C1.45283203 13.2578125 1.41738281 14.2890625 1.38085938 15.3515625 C1.35830078 16.43179687 1.33574219 17.51203125 1.3125 18.625 C1.27833984 19.71296875 1.24417969 20.8009375 1.20898438 21.921875 C1.12631666 24.61448063 1.05722913 27.30675291 1 30 C-0.98 30 -2.96 30 -5 30 C-5 29.67 -5 29.34 -5 29 C-3.35 29 -1.7 29 0 29 C-0.13904844 25.24971611 -0.28741611 21.49985719 -0.4375 17.75 C-0.47681641 16.68652344 -0.51613281 15.62304688 -0.55664062 14.52734375 C-0.61948242 12.99013672 -0.61948242 12.99013672 -0.68359375 11.421875 C-0.72025146 10.47924805 -0.75690918 9.53662109 -0.79467773 8.56542969 C-0.91071737 6.0287447 -0.91071737 6.0287447 -1.64477539 3.78613281 C-1.76199951 3.19670898 -1.87922363 2.60728516 -2 2 C-1.34 1.34 -0.68 0.68 0 0 Z " fill="#05466F" transform="translate(143,246)"/>
<path d="M0 0 C2.375 0.1875 2.375 0.1875 5 1 C6.125 3.375 6.125 3.375 7 6 C7.50700439 6.45737549 8.01400879 6.91475098 8.53637695 7.38598633 C10.45386823 9.50050424 10.34970117 10.63150841 10.29296875 13.44921875 C10.28330078 14.29677734 10.27363281 15.14433594 10.26367188 16.01757812 C10.23853516 16.89865234 10.21339844 17.77972656 10.1875 18.6875 C10.17396484 19.58017578 10.16042969 20.47285156 10.14648438 21.39257812 C10.11114079 23.59566166 10.06180493 25.79752582 10 28 C9.67 28 9.34 28 9 28 C8.96261719 26.73542969 8.92523438 25.47085937 8.88671875 24.16796875 C8.82106167 22.5077827 8.75461424 20.84762778 8.6875 19.1875 C8.66494141 18.35412109 8.64238281 17.52074219 8.61914062 16.66210938 C8.58369141 15.85966797 8.54824219 15.05722656 8.51171875 14.23046875 C8.48553467 13.49207764 8.45935059 12.75368652 8.43237305 11.99291992 C7.88347697 9.46291501 7.01828589 8.58560606 5 7 C1.89992799 5.79950593 1.89992799 5.79950593 -1 5 C-0.67 3.35 -0.34 1.7 0 0 Z " fill="#072F56" transform="translate(128,247)"/>
<path d="M0 0 C0 2.83967231 -0.40267181 5.23735711 -1 8 C-2.65 8 -4.3 8 -6 8 C-6.33 6.35 -6.66 4.7 -7 3 C-4.69 2.01 -2.38 1.02 0 0 Z " fill="#073158" transform="translate(134,230)"/>
<path d="M0 0 C1.32 0.66 2.64 1.32 4 2 C3.67 2.99 3.34 3.98 3 5 C1.68 5 0.36 5 -1 5 C-0.67 3.35 -0.34 1.7 0 0 Z " fill="#044F78" transform="translate(158,232)"/>
</svg>
