<?xml version="1.0" encoding="UTF-8"?>
<svg xmlns="http://www.w3.org/2000/svg" width="95" height="100" viewBox="98 190 95 100">
<path d="M0 0 C1.65 0 3.3 0 5 0 C5.02901401 4.58332006 5.04680348 9.16661651 5.0625 13.75 C5.07087891 15.05195313 5.07925781 16.35390625 5.08789062 17.6953125 C5.09111328 18.94570312 5.09433594 20.19609375 5.09765625 21.484375 C5.10289307 22.63647461 5.10812988 23.78857422 5.11352539 24.97558594 C5.01804485 27.51926964 4.74917261 29.58398313 4 32 C5.32 32.33 6.64 32.66 8 33 C8.33 31.68 8.66 30.36 9 29 C8.34 28.67 7.68 28.34 7 28 C7 18.76 7 9.52 7 0 C8.98 0 10.96 0 13 0 C13.01458252 0.70608398 13.02916504 1.41216797 13.04418945 2.13964844 C13.11873167 5.34364674 13.21537205 8.54661016 13.3125 11.75 C13.34633789 13.41675781 13.34633789 13.41675781 13.38085938 15.1171875 C13.41630859 16.18710938 13.45175781 17.25703125 13.48828125 18.359375 C13.51446533 19.34389648 13.54064941 20.32841797 13.56762695 21.34277344 C14.06029611 24.37056063 15.04658744 25.68835134 17 28 C17.6875 30.25 17.6875 30.25 18 32 C19.65 32 21.3 32 23 32 C22.88693303 30.04105639 22.88693303 30.04105639 22 28 C19.57616923 26.83046584 19.57616923 26.83046584 17 26 C15 24 15 24 14.77294922 21.66162109 C14.78342285 20.70852051 14.79389648 19.75541992 14.8046875 18.7734375 C14.81113281 17.7421875 14.81757813 16.7109375 14.82421875 15.6484375 C14.84097656 14.56820312 14.85773438 13.48796875 14.875 12.375 C14.88402344 11.28703125 14.89304688 10.1990625 14.90234375 9.078125 C14.92596591 6.38519848 14.95890444 3.69270745 15 1 C23.15099163 3.45332237 27.63252457 7.8122666 32.0546875 14.97265625 C35.2554003 21.83699487 35.0847339 30.11677015 32.6953125 37.16796875 C31.2353569 41.1558229 29.62421502 45.07668837 28 49 C26.48691559 53.53925323 26.99784247 58.18976449 27.12695312 62.92773438 C27.15664538 64.95204749 27.08505895 66.97725677 27 69 C25 71 25 71 22.6171875 71.1953125 C21.71226562 71.17210937 20.80734375 71.14890625 19.875 71.125 C18.96492188 71.10695313 18.05484375 71.08890625 17.1171875 71.0703125 C16.41851562 71.04710937 15.71984375 71.02390625 15 71 C14.91293108 67.72933434 14.85958759 64.45896635 14.8125 61.1875 C14.78736328 60.25873047 14.76222656 59.32996094 14.73632812 58.37304688 C14.72666016 57.48037109 14.71699219 56.58769531 14.70703125 55.66796875 C14.6913208 54.84578857 14.67561035 54.0236084 14.65942383 53.17651367 C15.08262991 50.4719386 15.86498197 49.6597972 18 48 C20.6875 46.8125 20.6875 46.8125 23 46 C23 45.01 23 44.02 23 43 C20.62102997 42.95489639 20.62102997 42.95489639 18 44 C13.82785337 49.70602407 13.35999882 54.4925745 13.25 61.4375 C13.20552734 62.82098633 13.20552734 62.82098633 13.16015625 64.23242188 C13.09004015 66.48782323 13.0426885 68.74391285 13 71 C8.71 71 4.42 71 0 71 C-0.02578125 69.60265625 -0.0515625 68.2053125 -0.078125 66.765625 C-0.13440784 64.92705217 -0.19175514 63.08851172 -0.25 61.25 C-0.26417969 60.32960938 -0.27835938 59.40921875 -0.29296875 58.4609375 C-0.39210533 53.05971812 -0.39210533 53.05971812 -3 48.5 C-3.66 48.005 -4.32 47.51 -5 47 C-5.75 44.75 -5.75 44.75 -6 43 C-7.32 43 -8.64 43 -10 43 C-10 44.32 -10 45.64 -10 47 C-8.576875 47.433125 -8.576875 47.433125 -7.125 47.875 C-4 49 -4 49 -2 51 C-1.77294922 52.97119141 -1.77294922 52.97119141 -1.8046875 55.3515625 C-1.81113281 56.20234375 -1.81757813 57.053125 -1.82421875 57.9296875 C-1.84097656 58.81914062 -1.85773438 59.70859375 -1.875 60.625 C-1.88402344 61.5221875 -1.89304688 62.419375 -1.90234375 63.34375 C-1.9259503 65.56276586 -1.9588769 67.78125077 -2 70 C-3.9375 69.6875 -3.9375 69.6875 -6 69 C-6.33 68.01 -6.66 67.02 -7 66 C-8.39025391 65.92652344 -8.39025391 65.92652344 -9.80859375 65.8515625 C-11.00613281 65.77679688 -12.20367187 65.70203125 -13.4375 65.625 C-14.63246094 65.55539062 -15.82742187 65.48578125 -17.05859375 65.4140625 C-18.02925781 65.27742188 -18.99992187 65.14078125 -20 65 C-21.44207941 62.11584117 -21.09394887 59.58278472 -21.0625 56.375 C-21.05347656 55.18648438 -21.04445313 53.99796875 -21.03515625 52.7734375 C-21.02355469 51.85820312 -21.01195313 50.94296875 -21 50 C-21.804375 49.855625 -22.60875 49.71125 -23.4375 49.5625 C-26 49 -26 49 -27 48 C-26.72129319 43.63359338 -25.77231233 40.3082587 -24 36.3125 C-22.33124007 32.39687402 -21.71426341 29.12277206 -21.5 24.875 C-20.92287876 15.47273313 -17.36605037 10.82995987 -10.4140625 4.6640625 C-7.7044718 2.79628639 -5.15183064 1.89922546 -2 1 C-1.913015 4.77068832 -1.85961421 8.54111932 -1.8125 12.3125 C-1.78736328 13.38435547 -1.76222656 14.45621094 -1.73632812 15.56054688 C-1.72666016 16.58857422 -1.71699219 17.61660156 -1.70703125 18.67578125 C-1.6913208 19.62364502 -1.67561035 20.57150879 -1.65942383 21.5480957 C-2 24 -2 24 -3.3503418 25.78979492 C-5.48725819 27.35745728 -7.40128134 27.6488218 -10 28 C-10 29.32 -10 30.64 -10 32 C-8.35 32.33 -6.7 32.66 -5 33 C-5.12375 31.88625 -5.12375 31.88625 -5.25 30.75 C-5 28 -5 28 -3.02246094 26.18066406 C-0.47799435 23.43716146 -0.46917381 22.05116897 -0.390625 18.359375 C-0.34228516 16.75449219 -0.34228516 16.75449219 -0.29296875 15.1171875 C-0.27878906 14.00601563 -0.26460937 12.89484375 -0.25 11.75 C-0.22035156 10.62335938 -0.19070312 9.49671875 -0.16015625 8.3359375 C-0.08951088 5.55721979 -0.03678723 2.77933852 0 0 Z " fill="#0089B8" transform="translate(138,205)"/>
</svg>
